<?xml version="1.0" standalone="no"?>
<!DOCTYPE svg PUBLIC "-//W3C//DTD SVG 20010904//EN"
 "http://www.w3.org/TR/2001/REC-SVG-20010904/DTD/svg10.dtd">
<svg version="1.0" xmlns="http://www.w3.org/2000/svg"
 width="454.000000pt" height="454.000000pt" viewBox="0 0 454.000000 454.000000"
 preserveAspectRatio="xMidYMid meet">
<metadata>
Created by potrace 1.14, written by Peter Selinger 2001-2017
</metadata>
<g transform="translate(0.000000,454.000000) scale(0.100000,-0.100000)"
fill="#000000" stroke="none">
<path d="M2269 3823 c-13 -21 -87 -139 -164 -263 -78 -124 -147 -236 -154
-249 -13 -23 -13 -24 25 -16 22 4 56 11 76 15 l38 7 -22 -36 c-12 -20 -69
-107 -126 -194 -57 -87 -101 -161 -98 -164 3 -3 38 2 78 11 40 10 83 19 95 22
25 5 27 8 -202 -341 -117 -179 -139 -215 -133 -220 4 -3 166 32 368 80 80 19
153 35 163 35 16 0 17 -17 17 -225 l0 -225 80 0 80 0 0 225 c0 124 3 225 8
225 4 0 72 -16 152 -35 202 -48 364 -83 368 -80 7 6 -38 78 -293 465 -34 52
-61 96 -60 98 2 2 44 -7 95 -18 50 -12 94 -20 96 -17 6 6 -4 23 -138 228 -52
79 -97 149 -101 155 -6 11 -3 11 107 -11 47 -9 54 -27 -97 214 -61 97 -134
214 -163 261 -28 46 -56 86 -62 88 -5 1 -20 -14 -33 -35z"/>
<path d="M444 1555 c-11 -28 4 -45 41 -45 l35 0 0 -259 0 -260 -37 -3 c-33 -3
-38 -7 -41 -30 l-3 -28 205 0 206 0 0 80 c0 79 0 80 -25 80 -23 0 -25 -3 -25
-50 l0 -50 -110 0 -110 0 0 125 0 125 115 0 115 0 0 25 0 25 -115 0 -115 0 0
110 0 110 104 0 105 0 3 -42 c3 -38 6 -43 28 -43 24 0 25 2 25 70 l0 70 -198
3 c-169 2 -198 0 -203 -13z"/>
<path d="M1465 1367 c-30 -16 -48 -37 -70 -82 -26 -52 -30 -71 -30 -140 1
-140 63 -217 176 -217 77 0 128 39 149 113 8 27 7 29 -21 29 -22 0 -30 -5 -35
-25 -14 -54 -100 -84 -156 -54 -26 14 -58 85 -58 132 l0 37 146 0 145 0 -6 48
c-21 150 -129 222 -240 159z m138 -47 c14 -11 28 -35 32 -53 4 -17 9 -40 11
-49 5 -16 -5 -18 -111 -18 l-115 0 6 28 c23 96 113 143 177 92z"/>
<path d="M1950 1383 c-8 -3 -25 -15 -37 -26 l-23 -20 0 21 c0 20 -5 22 -60 22
-53 0 -60 -2 -60 -20 0 -16 7 -20 30 -20 l30 0 0 -180 0 -180 -30 0 c-25 0
-30 -4 -30 -25 0 -25 0 -25 95 -25 95 0 95 0 95 25 0 22 -4 25 -35 25 l-35 0
0 135 c0 96 4 146 14 170 30 70 106 69 106 0 0 -32 2 -35 30 -35 29 0 30 2 30
44 0 37 -5 48 -31 70 -29 25 -57 31 -89 19z"/>
<path d="M2710 1373 c-14 -9 -30 -24 -37 -33 -11 -13 -12 -11 -13 13 0 26 -1
27 -60 27 -53 0 -60 -2 -60 -20 0 -16 7 -20 35 -20 l35 0 0 -180 0 -180 -36 0
c-31 0 -35 -3 -32 -22 3 -22 8 -23 101 -26 l97 -3 0 26 c0 22 -4 25 -36 25
l-35 0 3 156 3 156 28 24 c44 38 87 19 87 -39 0 -25 3 -28 28 -25 23 3 27 8
30 41 3 30 -2 43 -27 67 -34 34 -73 39 -111 13z"/>
<path d="M3002 1374 c-46 -24 -79 -67 -97 -126 -43 -146 12 -292 120 -316 79
-17 161 21 186 86 15 38 11 52 -15 52 -17 0 -27 -9 -36 -31 -17 -39 -50 -61
-95 -61 -66 0 -109 52 -117 137 l-3 40 144 3 143 3 -4 52 c-6 66 -32 121 -71
149 -39 28 -112 34 -155 12z m120 -45 c23 -12 48 -66 48 -104 l0 -25 -110 0
c-123 0 -125 1 -94 66 31 65 100 93 156 63z"/>
<path d="M3412 1373 c-122 -60 -152 -302 -50 -400 78 -76 223 -50 259 45 15
38 11 52 -15 52 -17 0 -27 -9 -36 -30 -18 -42 -47 -60 -98 -60 -70 0 -112 57
-112 151 l0 29 141 0 141 0 -4 53 c-12 139 -117 214 -226 160z m119 -43 c25
-14 49 -62 49 -100 l0 -30 -110 0 c-81 0 -110 3 -110 13 1 25 39 95 61 111 26
18 81 21 110 6z"/>
<path d="M3866 1365 c-34 -23 -36 -23 -36 -5 0 18 -7 20 -65 20 -58 0 -65 -2
-65 -20 0 -16 7 -20 35 -20 l35 0 0 -180 0 -180 -36 0 c-31 0 -35 -3 -32 -22
3 -22 8 -23 96 -26 l92 -3 0 26 c0 21 -5 25 -30 25 l-30 0 0 135 c0 145 8 179
52 209 29 20 77 20 106 0 21 -15 22 -21 22 -180 l0 -164 -30 0 c-25 0 -30 -4
-30 -25 l0 -26 93 3 c87 3 92 4 95 26 3 19 -1 22 -32 22 l-36 0 0 160 c0 124
-3 168 -15 190 -32 62 -124 79 -189 35z"/>
<path d="M880 1360 c0 -16 7 -20 34 -20 l35 0 68 -205 c64 -194 69 -205 93
-205 24 0 29 11 95 205 l69 205 33 0 c26 0 33 4 33 20 0 19 -7 20 -90 20 -83
0 -90 -1 -90 -20 0 -16 7 -20 30 -20 17 0 30 -3 30 -8 0 -4 -24 -79 -54 -167
l-53 -160 -37 120 c-20 66 -44 140 -52 164 -7 25 -14 46 -14 48 0 2 14 3 30 3
23 0 30 4 30 20 0 19 -7 20 -95 20 -88 0 -95 -1 -95 -20z"/>
<path d="M2214 1366 c-94 -41 -109 -175 -25 -237 l31 -23 -29 -12 c-16 -7 -37
-24 -47 -38 -16 -25 -16 -28 1 -46 10 -11 25 -20 34 -20 9 -1 2 -7 -15 -14
-51 -22 -74 -54 -74 -102 0 -58 35 -99 103 -119 165 -49 301 34 265 162 -15
56 -69 81 -210 98 -38 5 -48 10 -48 25 0 14 21 27 82 52 100 41 134 73 144
133 5 35 2 52 -15 80 l-20 35 49 0 c43 0 50 3 50 20 0 19 -7 20 -122 20 -80
-1 -134 -5 -154 -14z m131 -51 c19 -18 25 -35 25 -68 0 -62 -29 -97 -80 -97
-52 0 -68 8 -85 41 -24 45 -19 87 14 120 38 38 91 40 126 4z m14 -366 c76 -27
67 -135 -14 -155 -47 -12 -143 1 -173 23 -31 23 -41 75 -20 100 32 39 138 56
207 32z"/>
</g>
</svg>
